<svg xmlns="http://www.w3.org/2000/svg" data-name="pa" viewBox="0 0 50 62.5" x="0px" y="0px"><title>icone-gesturesespanse</title><path d="M38.174,18.249a2.7,2.7,0,0,0-2.567,1.742c-.364,1.969-1.892,4.8-3.207,4.9-.019,0-.038,0-.057,0a.9.9,0,0,1-.115,0c-.024,0-.044-.011-.067-.015h-.012c-.531-.139-2.2-.4-2.877.2a.6.6,0,1,1-.795-.9,3.375,3.375,0,0,1,2.272-.677,9.112,9.112,0,0,1-.056-3.316c.024-.21.044-.387.053-.517.05-.784,1.51-10.213,1.676-11.285a1.46,1.46,0,0,0-.236-1.065,1.27,1.27,0,0,0-.853-.545,1.168,1.168,0,0,0-.9.186,1.5,1.5,0,0,0-.62.979L27.835,20.828a.6.6,0,0,1-1.193-.117l.664-15.189a1.337,1.337,0,0,0-2.646-.143l-.678,15a.6.6,0,0,1-.6.572h0a.6.6,0,0,1-.6-.574L22.21,6.93a.921.921,0,0,0-.3-.757,1.523,1.523,0,0,0-.954-.395,1.354,1.354,0,0,0-1.4,1.089l.453,15.194a.6.6,0,0,1-.753.6c-.449-.119-1.93-1-2.116-7.279.066-1.72-.456-1.791-.652-1.817a1.109,1.109,0,0,0-1.294.834c-.617,3.877.408,14.856,1.828,16.711a8.087,8.087,0,0,1,1.4,5.593H28.7l.1-2.194c.047-1.047,4.567-4.139,4.613-4.169,1.915-1.275,3.466-2.756,4.559-9.108.052-.348.136-.728.22-1.1.14-.627.351-1.575.176-1.814C38.333,18.268,38.221,18.253,38.174,18.249Z" fill="none"/><path d="M6.309,11a.6.6,0,0,0,.432-.184,9.684,9.684,0,0,1,8.082-3.309.6.6,0,1,0,.109-1.2A10.883,10.883,0,0,0,5.877,9.982.6.6,0,0,0,6.309,11Z"/><path d="M14.268,10.319a.6.6,0,0,0-.673-.516,10.885,10.885,0,0,0-8.019,5.583.6.6,0,0,0,1.027.621,9.68,9.68,0,0,1,7.148-5.015A.6.6,0,0,0,14.268,10.319Z"/><path d="M38.277,17.054a3.864,3.864,0,0,0-3.85,2.719,7.242,7.242,0,0,1-2.047,3.933l-.018,0c-.845-.134-.579-2.486-.478-3.377.027-.233.049-.432.058-.575.036-.553,1.015-6.988,1.665-11.178a2.657,2.657,0,0,0-.435-1.934A2.447,2.447,0,0,0,31.545,5.6a2.332,2.332,0,0,0-1.792.375,2.714,2.714,0,0,0-1.128,1.774l-.3,1.959.181-4.13A2.456,2.456,0,0,0,26.086,3.1a2.421,2.421,0,0,0-2.624,2.217l-.059,1.3A2.1,2.1,0,0,0,22.736,5.3a2.725,2.725,0,0,0-1.7-.722A2.551,2.551,0,0,0,18.358,6.83l.368,12.455a23.426,23.426,0,0,1-.388-3.9c.072-1.835-.5-2.849-1.688-3.013a2.286,2.286,0,0,0-2.643,1.835c-.617,3.882.331,15.37,2.06,17.628A7.047,7.047,0,0,1,17.21,36.7h-1.23a.65.65,0,0,0-.65.65v7.661a.65.65,0,1,0,1.3,0V38H30.783v7.011a.65.65,0,1,0,1.3,0V37.351a.65.65,0,0,0-.65-.65H29.9l.089-2.036a25.781,25.781,0,0,1,4.083-3.329c2.47-1.645,4.011-3.71,5.079-9.916.05-.333.129-.686.207-1.033.242-1.083.47-2.106-.028-2.784A1.392,1.392,0,0,0,38.277,17.054Zm-.088,3.071c-.083.376-.168.756-.22,1.1-1.093,6.353-2.645,7.833-4.559,9.108-.045.03-4.566,3.122-4.613,4.169L28.7,36.7H18.419a8.087,8.087,0,0,0-1.4-5.593C15.6,29.253,14.576,18.273,15.193,14.4a1.109,1.109,0,0,1,1.294-.834c.2.026.718.1.652,1.817.186,6.282,1.667,7.16,2.116,7.279a.6.6,0,0,0,.753-.6L19.556,6.867a1.354,1.354,0,0,1,1.4-1.089,1.523,1.523,0,0,1,.954.395.921.921,0,0,1,.3.757l.573,13.442a.6.6,0,0,0,.6.574h0a.6.6,0,0,0,.6-.572l.678-15a1.337,1.337,0,0,1,2.646.143l-.664,15.189a.6.6,0,0,0,1.193.117L29.809,7.94a1.5,1.5,0,0,1,.62-.979,1.168,1.168,0,0,1,.9-.186,1.27,1.27,0,0,1,.853.545,1.46,1.46,0,0,1,.236,1.065c-.167,1.072-1.626,10.5-1.676,11.285-.008.13-.029.307-.053.517a9.112,9.112,0,0,0,.056,3.316,3.375,3.375,0,0,0-2.272.677.6.6,0,0,0,.795.9c.677-.6,2.346-.335,2.877-.2h.012c.024,0,.043.012.067.015a.9.9,0,0,0,.115,0c.019,0,.038,0,.057,0,1.314-.106,2.843-2.934,3.207-4.9a2.7,2.7,0,0,1,2.567-1.742c.047,0,.159.019.191.062C38.54,18.55,38.329,19.5,38.189,20.125Z"/></svg>